
<svg width="25px" height="25px" viewBox="0 0 25 25" version="1.1" xmlns="http://www.w3.org/2000/svg" xmlns:xlink="http://www.w3.org/1999/xlink">
  <path d="M1.54375641,1.54375641 C2.27383162,0.813681197 3.45650487,0.813681197 4.18658009,1.54375641 L12.9962,10.3533763 L21.8058199,1.54375641 C22.5358951,0.813681197 23.7185684,0.813681197 24.4486436,1.54375641 C25.1787188,2.27383162 25.1787188,3.45650487 24.4486436,4.18658009 L15.6390237,12.9962 L24.4486436,21.8058199 C25.1787188,22.5358951 25.1787188,23.7185684 24.4486436,24.4486436 C23.7185684,25.1787188 22.5358951,25.1787188 21.8058199,24.4486436 L12.9962,15.6390237 L4.18658009,24.4486436 C3.45650487,25.1787188 2.27383162,25.1787188 1.54375641,24.4486436 C0.813681197,23.7185684 0.813681197,22.5358951 1.54375641,21.8058199 L10.3533763,12.9962 L1.54375641,4.18658009 C0.813681197,3.45650487 0.813681197,2.27383162 1.54375641,1.54375641 Z" id="Path"></path>
</svg>