<?xml version="1.0" encoding="UTF-8"?>
<svg width="32px" height="31px" viewBox="0 0 32 31" version="1.1" xmlns="http://www.w3.org/2000/svg" xmlns:xlink="http://www.w3.org/1999/xlink">
    <!-- Generator: Sketch 55.1 (78136) - https://sketchapp.com -->
    <title>np_sync_62222_000000</title>
    <desc>Created with Sketch.</desc>
    <g id="Page-1" stroke="none" stroke-width="1" fill="none" fill-rule="evenodd">
        <g id="Desktop-HD-Copy" transform="translate(-1283.000000, -38.000000)" fill="#FFFFFF" fill-rule="nonzero">
            <g id="Group-10" transform="translate(46.000000, 25.000000)">
                <g id="Group-2" transform="translate(1183.477588, 12.405000)">
                    <g id="np_sync_62222_000000" transform="translate(53.823332, 0.381951)">
                        <path d="M15.6544321,0.299036402 C7.18411204,0.299036402 0.298821292,7.18425124 0.298821292,15.6545713 C0.29485379,15.9332427 0.403603442,16.2023929 0.599353443,16.4022145 C0.795103444,16.6006824 1.06288945,16.7135109 1.34292505,16.7135109 C1.62296065,16.7135109 1.89074665,16.6006824 2.08649665,16.4022145 C2.28224665,16.2023859 2.39099665,15.9332149 2.38691809,15.6545713 C2.38691809,8.31246725 8.31231413,2.38707121 15.6544182,2.38707121 C19.9501302,2.38707121 23.7562062,4.42885682 26.1814182,7.58549524 L21.8641302,7.58549524 C21.5840981,7.58141703 21.3149514,7.68880948 21.116487,7.88591668 C20.9166584,8.08166668 20.8051906,8.34945269 20.8051906,8.62948829 C20.8051906,8.90815973 20.9166584,9.17595269 21.116487,9.37305989 C21.3149549,9.56880989 21.5841294,9.67755989 21.8641302,9.67348133 L28.4434182,9.67348133 C29.0197758,9.67348133 29.4876128,9.20583893 29.4876128,8.62948133 L29.4876128,2.05019329 C29.4928557,1.76744329 29.384104,1.49419369 29.1856361,1.29301489 C28.9871682,1.09318633 28.7152793,0.981718445 28.4325293,0.984436325 C28.1538579,0.987155249 27.8874221,1.10134345 27.6930293,1.30117201 C27.4999972,1.50100057 27.3939651,1.77152881 27.3994043,2.05017241 L27.3994043,5.75846043 C24.5786903,2.42256721 20.3565803,0.299036402 15.6544042,0.299036402 L15.6544321,0.299036402 Z M29.9551442,14.5997833 C29.3828582,14.6120176 28.9274654,15.0823549 28.9328942,15.6546409 C28.9328942,22.9967449 22.9963621,28.932929 15.6546061,28.932929 C11.3588941,28.932929 7.55281804,26.8925005 5.12760603,23.7345049 L9.45603005,23.7345049 C9.73606217,23.7385831 10.0052089,23.6298335 10.2036733,23.4340835 C10.4035018,23.2369728 10.5149697,22.9691903 10.5149697,22.6905119 C10.5149697,22.4104798 10.4035018,22.1426903 10.2036733,21.9469403 C10.0052054,21.7498296 9.73603085,21.6424403 9.45603005,21.6465188 L2.86560602,21.6465188 C2.83298102,21.6451596 2.80035602,21.6451596 2.76773102,21.6465188 C2.22940981,21.6968153 1.81887421,22.1494832 1.8214779,22.6905188 L1.8214779,29.2698069 C1.8175104,29.5484783 1.92626005,29.8176285 2.12201005,30.0174501 C2.31776005,30.215918 2.58554605,30.3287465 2.86558166,30.3287465 C3.14561726,30.3287465 3.41340326,30.215918 3.60915326,30.0174501 C3.80490326,29.8176215 3.91365326,29.5484505 3.9095747,29.2698069 L3.9095747,25.5503829 C6.72757432,28.8930969 10.9471787,31.0205949 15.6545748,31.0205949 C24.1248948,31.0205949 31.0209114,24.1246269 31.0209114,15.6543068 C31.0235818,15.3715568 30.9121128,15.0996644 30.7109271,14.9012 C30.5110985,14.7013714 30.2378559,14.5926214 29.9551059,14.5994179 L29.9551442,14.5997833 Z" id="Shape"></path>
                    </g>
                </g>
            </g>
        </g>
    </g>
</svg>