<?xml version="1.0" encoding="UTF-8"?>
<svg width="32px" height="33px" viewBox="0 0 32 33" version="1.1" xmlns="http://www.w3.org/2000/svg" xmlns:xlink="http://www.w3.org/1999/xlink">
    <!-- Generator: Sketch 55.1 (78136) - https://sketchapp.com -->
    <title>Shape</title>
    <desc>Created with Sketch.</desc>
    <g id="Page-1" stroke="none" stroke-width="1" fill="none" fill-rule="evenodd">
        <g id="Desktop-HD-Copy" transform="translate(-1229.000000, -37.000000)" fill="#FFFFFF" fill-rule="nonzero">
            <g id="Group-10" transform="translate(46.000000, 25.000000)">
                <g id="Group-2" transform="translate(1183.477588, 12.405000)">
                    <path d="M30.8410677,29.7715738 L21.6543422,20.5513929 C24.3570447,17.2911944 25.1814725,12.8644683 23.8328974,8.84945782 C22.4843222,4.83444735 19.1544723,1.80210188 15.0323332,0.834385053 C10.9087705,-0.134648634 6.57806863,1.09853722 3.58344952,4.09315989 C0.588794822,7.08781459 -0.644394594,11.4184808 0.324674684,15.5420436 C1.29232033,19.6641827 4.32438107,22.9940682 8.33974746,24.3426077 C12.3547579,25.6911829 16.7815552,24.866755 20.0416825,22.1640526 L29.228408,31.3507781 C29.4369494,31.5607075 29.7219472,31.6802716 30.0180991,31.6802716 C30.3142511,31.6802716 30.5992275,31.5607075 30.8077902,31.3507781 C31.0232825,31.146408 31.1470143,30.8641792 31.1541654,30.5680628 C31.1595298,30.2719358 31.0469184,29.9841583 30.8411567,29.7714315 L30.8410677,29.7715738 Z M2.24590756,12.7658815 C2.24590756,10.1104793 3.30110684,7.56498191 5.17799344,5.68791735 C7.05484445,3.81106634 9.60051983,2.75583147 12.2559576,2.75583147 C14.9113953,2.75583147 17.4568571,3.81103075 19.3339217,5.68791735 C21.2107727,7.56476836 22.2660076,10.1104437 22.2660076,12.7658815 C22.2660076,15.4213192 21.2108083,17.9667811 19.3339217,19.8438456 C17.4570707,21.7206966 14.9113953,22.7759315 12.2559576,22.7759315 C9.60051983,22.7759315 7.05505799,21.7207322 5.17799344,19.8438456 C3.30114243,17.9669946 2.24590756,15.4213192 2.24590756,12.7658815 Z" id="Shape"></path>
                </g>
            </g>
        </g>
    </g>
</svg>