<?xml version="1.0" encoding="UTF-8"?>
<svg width="32px" height="32px" viewBox="0 0 32 32" version="1.1" xmlns="http://www.w3.org/2000/svg" xmlns:xlink="http://www.w3.org/1999/xlink">
    <!-- Generator: Sketch 55.1 (78136) - https://sketchapp.com -->
    <title>np_settings_2650523_000000</title>
    <desc>Created with Sketch.</desc>
    <g id="Page-1" stroke="none" stroke-width="1" fill="none" fill-rule="evenodd">
        <g id="Desktop-HD-Copy" transform="translate(-1337.000000, -37.000000)" fill="#FFFFFF" fill-rule="nonzero">
            <g id="Group-10" transform="translate(46.000000, 25.000000)">
                <g id="Group-2" transform="translate(1183.477588, 12.405000)">
                    <g id="np_settings_2650523_000000" transform="translate(107.812499, -0.000000)">
                        <path d="M16.6774041,31.3352018 L14.6485302,31.3352018 C14.010979,31.3352018 13.4199472,31.0072323 13.0822193,30.4676068 C12.9353776,30.2363316 12.0359862,28.7287511 11.5783102,27.8367057 L9.95570602,27.1685801 C8.96573486,27.4818423 7.18283445,27.9272698 7.02989985,27.9639841 C6.40704064,28.1071543 5.75482877,27.9211549 5.30329265,27.469625 L3.86548186,26.0318142 C3.41394575,25.5802781 3.22670894,24.9280663 3.37112281,24.305207 C3.4335309,24.0359958 3.85937325,22.3350698 4.16652683,21.3794009 L3.49962296,19.7629053 C2.55983639,19.2869034 0.99352546,18.3373118 0.868721805,18.2589962 L0.867497889,18.2602201 C0.32784112,17.9224922 -8.17375615e-05,17.3302074 -8.17375615e-05,16.6939092 L-8.17375615e-05,14.657705 C-8.17375615e-05,14.0201538 0.327872446,13.429122 0.867497889,13.0913941 C1.0987731,12.9445524 2.60635364,12.045161 3.49839904,11.587485 L4.16530291,9.97098942 C3.85204072,8.98101825 3.40661322,7.19811784 3.36989889,7.04518324 L3.37112281,7.04518324 C3.22795259,6.42232404 3.41395201,5.77011216 3.86548186,5.31857605 L5.30329265,3.88076526 C5.75482877,3.42922914 6.40704064,3.24199233 7.02989985,3.3864062 C7.2991111,3.4488143 9.00003707,3.87465665 9.95570602,4.18181022 L11.5722016,3.51490635 C12.0482035,2.57511979 12.9977951,1.00880886 13.0761107,0.884005201 L13.0748867,0.882781286 C13.4126147,0.343124516 14.0048995,0.0152016586 14.6411977,0.0152016586 L16.6712933,0.0152016586 C17.3088445,0.0152016586 17.8998763,0.343155842 18.2376042,0.882781286 C18.3844459,1.11405649 19.2838373,2.62163703 19.7415133,3.51368244 L21.3580089,4.18058631 C22.34798,3.86732412 24.1308804,3.42189662 24.283815,3.38518229 L24.283815,3.38640589 C24.9066742,3.24323567 25.5576644,3.43045682 26.0104222,3.88076495 L27.448233,5.31857573 C27.8997691,5.77011185 28.0870059,6.42232372 27.9425921,7.04518293 C27.880184,7.31439105 27.4543416,9.01532015 27.1471881,9.9709891 L27.8140919,11.5874846 C28.7538785,12.0634865 30.3201894,13.0130782 30.4449931,13.0913937 L30.4462167,13.0913937 C30.9858735,13.4291217 31.3137963,14.0201535 31.3137963,14.6577047 L31.3137963,16.6878003 L31.3137963,16.6865764 C31.3137963,17.3241276 30.9858421,17.9151593 30.4462167,18.2528873 C30.2149415,18.399729 28.7073609,19.2991204 27.8153155,19.7567964 L27.1594072,21.3794006 C27.4726694,22.3693717 27.9180969,24.1522721 27.9548112,24.3052067 C28.0979814,24.9280659 27.911982,25.5802778 27.4604521,26.0318139 L26.0226413,27.4696247 C25.5711052,27.9211608 24.9188934,28.1071759 24.2960341,27.9639838 C24.0268229,27.9015757 22.3258969,27.4757333 21.370228,27.1685798 L19.7537324,27.8354836 C19.2777305,28.7752702 18.3281389,30.3415811 18.2498233,30.4663848 L18.2510472,30.4676087 C17.9120976,31.0084872 17.3173693,31.3376318 16.677406,31.3352018 L16.6774041,31.3352018 Z M10.0021002,25.3086485 L12.8434822,26.4894903 L12.9842058,26.8027525 C13.2729959,27.4292769 14.3119049,29.1901549 14.5505167,29.5499052 C14.5725428,29.5853916 14.6117,29.6061953 14.6545292,29.6061953 L16.6846248,29.6061953 C16.7262291,29.6061953 16.7653869,29.5853925 16.7874124,29.5499052 C16.9721869,29.2549971 18.0404611,27.4696564 18.3537233,26.8027525 L18.4944469,26.4894903 L21.3456341,25.3086485 L21.6588963,25.424897 C22.307443,25.663515 24.2836888,26.1701164 24.700954,26.2704542 L24.700954,26.2692306 C24.7401118,26.2814676 24.782941,26.2692306 24.8098628,26.2386387 L26.2476735,24.8008279 C26.2782658,24.7726832 26.2905028,24.731077 26.2794885,24.6906975 C26.2011729,24.355413 25.6933436,22.3351225 25.4339312,21.6486397 L25.3176827,21.3353775 L26.4924159,18.4915521 L26.8056781,18.3508284 C27.4322025,18.0620383 29.1930805,17.0231293 29.5528308,16.7845175 C29.5883172,16.7624914 29.6103426,16.7233342 29.6091694,16.680505 L29.6091694,14.6504094 C29.6103448,14.6088051 29.5883184,14.5696473 29.5528308,14.5476218 C29.2579227,14.3628473 27.472582,13.2945731 26.8056781,12.9813109 L26.4924159,12.8405873 L25.3115741,9.98940015 L25.4278225,9.67613796 C25.6664406,9.02759126 26.173042,7.05134542 26.2733798,6.63408019 C26.2819457,6.59492242 26.2697087,6.55331807 26.2415649,6.52517146 L24.8037541,5.08736067 C24.7756094,5.05676843 24.7340032,5.04453147 24.6936237,5.05554576 C24.3583392,5.13386131 22.3441573,5.64169064 21.6515659,5.90110306 L21.3383037,6.01735152 L18.4822297,4.84261832 L18.3415061,4.52935614 C18.0527159,3.90283176 17.013807,2.14195368 16.7751951,1.78220339 C16.7531691,1.74671705 16.7140119,1.72469158 16.6711827,1.7258648 L14.6545574,1.7258648 C14.6117282,1.72468939 14.5725704,1.74671579 14.5505449,1.78220339 C14.3657704,2.07711154 13.2974962,3.86245227 12.984234,4.52935614 L12.8435104,4.84261832 L9.99232324,6.02346014 L9.67906105,5.90721167 C9.03051434,5.6685936 7.05426851,5.16199226 6.63700328,5.06165438 L6.63822688,5.06165438 C6.59784425,5.05064133 6.55501818,5.06287798 6.52809643,5.09346928 L5.09028564,6.53128007 C5.05969371,6.5594248 5.04868129,6.60103103 5.05847073,6.64141052 C5.13678628,6.97669504 5.64461561,8.99698554 5.90402803,9.6834683 L6.02027649,9.99673048 L4.84554329,12.8528045 L4.5322811,12.9935281 C3.90575673,13.2823183 2.14487865,14.3212273 1.78512836,14.5598391 C1.74964202,14.5818652 1.72883827,14.6210223 1.72883827,14.6638515 L1.72883827,16.6939471 C1.72883827,16.7355515 1.74964108,16.7747092 1.78512836,16.7967347 C2.08003651,16.9815093 3.86537723,18.0497835 4.5322811,18.3630456 L4.84554329,18.5037693 L6.02638511,21.3549564 L5.91013664,21.6682186 C5.67151857,22.3167653 5.16491722,24.2930111 5.06457935,24.7102764 L5.06580295,24.7102764 C5.0560135,24.7494341 5.06825046,24.7910385 5.09639488,24.8191851 L6.53420567,26.2569959 C6.56235039,26.2875881 6.60395662,26.2998251 6.64433612,26.2888108 C6.97962064,26.2104952 8.99380252,25.7026659 9.68639389,25.4432535 L10.0021002,25.3086485 Z M15.6627479,22.9897878 C13.7219946,22.9897878 11.8606847,22.2188809 10.4876565,20.8471371 C9.11591275,19.4741716 8.34500583,17.6130183 8.34500583,15.6720458 C8.34500583,13.7310733 9.11591275,11.8699826 10.4876565,10.4969544 C11.8606221,9.12521064 13.7217754,8.35430373 15.6627479,8.35430373 C17.6037204,8.35430373 19.464811,9.12521064 20.8378392,10.4969544 C22.209583,11.8699199 22.9804899,13.7310733 22.9804899,15.6720458 C22.9768188,17.6115773 22.2058865,19.4716028 20.8341427,20.8433779 C19.4623989,22.2151217 17.60253,22.9860287 15.6628105,22.9897878 L15.6627479,22.9897878 Z M15.6627479,10.0862051 L15.6627479,10.0874287 C14.1808611,10.0874287 12.7601857,10.6747953 11.712825,11.7222814 C10.6654642,12.7697675 10.0779723,14.1904428 10.0779723,15.6722043 C10.0779723,17.1539657 10.6653389,18.5747664 11.712825,19.6221272 C12.7603111,20.669488 14.1809864,21.2569799 15.6627479,21.2569799 C17.1445093,21.2569799 18.56531,20.6696133 19.6126708,19.6221272 C20.6600316,18.5746411 21.2475235,17.1539657 21.2475235,15.6722043 C21.2462999,14.1915392 20.6577134,12.7720856 19.6102273,11.7244742 C18.5627412,10.6768628 17.1432876,10.0883998 15.6624973,10.087178 L15.6627479,10.0862051 Z" id="Shape"></path>
                    </g>
                </g>
            </g>
        </g>
    </g>
</svg>